<?xml version="1.0" encoding="UTF-8"?>
<svg id="Layer_1" data-name="Layer 1" xmlns="http://www.w3.org/2000/svg" version="1.1" viewBox="0 0 410.4 96.1">
  <defs>
    <style>
      .cls-1 {
        fill: #fff;
      }

      .cls-1, .cls-2 {
        stroke-width: 0px;
      }

      .cls-2 {
        fill: #542cdb;
      }
    </style>
  </defs>
  <g>
    <path class="cls-1" d="M66,.8v58.3h-14.2V24.2l-13,34.9h-11.5L14.2,24.1v35H0V.8h16.8l16.4,40.3L49.3.8h16.7Z"/>
    <path class="cls-1" d="M88.7,55.9c-4.6-2.5-8.2-6.1-10.9-10.7-2.7-4.6-4-9.7-4-15.4s1.3-10.8,4-15.4c2.7-4.5,6.3-8.1,10.9-10.6C93.3,1.3,98.3,0,103.8,0s10.5,1.3,15.1,3.8c4.6,2.5,8.2,6.1,10.8,10.6,2.6,4.5,3.9,9.7,3.9,15.4s-1.3,10.8-4,15.4c-2.7,4.6-6.3,8.1-10.8,10.7-4.5,2.5-9.5,3.8-15,3.8s-10.5-1.3-15.1-3.8ZM114.9,42.1c2.8-3.1,4.2-7.2,4.2-12.3s-1.4-9.3-4.2-12.3c-2.8-3.1-6.5-4.6-11.2-4.6s-8.5,1.5-11.2,4.6c-2.8,3-4.2,7.2-4.2,12.4s1.4,9.3,4.2,12.3c2.8,3.1,6.5,4.6,11.2,4.6s8.4-1.5,11.2-4.6Z"/>
    <path class="cls-1" d="M191.9.8v58.3h-14.2v-24h-22.1v24h-14.2V.8h14.2v22.8h22.1V.8h14.2Z"/>
    <path class="cls-1" d="M238.6.8v39.7c0,6.1-1.7,10.9-5.2,14.2-3.5,3.3-8.1,5-14,5s-11.1-1.7-14.8-5.2c-3.7-3.5-5.6-8.4-5.6-14.9h14.1c0,2.4.5,4.3,1.5,5.5,1,1.2,2.4,1.9,4.3,1.9s3-.6,4-1.7c.9-1.1,1.4-2.7,1.4-4.8V.8h14.2Z"/>
    <path class="cls-1" d="M264.3,12.2v11.8h19v11h-19v12.8h21.5v11.4h-35.7V.8h35.7v11.4h-21.5Z"/>
    <path class="cls-1" d="M345.4.8v58.3h-14.2v-24h-22.1v24h-14.2V.8h14.2v22.8h22.1V.8h14.2Z"/>
    <path class="cls-1" d="M391.9,48.8h-21.7l-3.5,10.3h-14.9L372.9.8h16.4l21.1,58.3h-15l-3.5-10.3ZM388.3,37.8l-7.2-21.3-7.1,21.3h14.4Z"/>
  </g>
  <g>
    <path class="cls-2" d="M9,96.6c-1.4,0-2.6-.3-3.7-.9-1.1-.6-2-1.5-2.6-2.6-.7-1.1-1-2.3-1-3.6s0-.5.2-.7c.2-.2.4-.3.7-.3s.5,0,.7.3c.2.2.2.4.2.7,0,1,.2,1.9.7,2.7.5.8,1.1,1.4,2,1.9.8.5,1.7.7,2.7.7,1.8,0,3.1-.5,4.1-1.5s1.4-2.2,1.4-3.7-.2-2.1-.7-2.9c-.5-.8-1.1-1.4-1.9-1.8s-1.7-.6-2.7-.6-.5,0-.7-.3c-.2-.2-.3-.4-.3-.7s0-.5.3-.7.4-.3.7-.3c.8,0,1.6-.2,2.2-.6s1.2-.9,1.5-1.6c.4-.7.6-1.4.6-2.1,0-1.2-.4-2.2-1.2-3.1-.8-.8-1.9-1.2-3.3-1.2s-1.7.2-2.4.5c-.7.4-1.3.8-1.6,1.4-.4.6-.6,1.3-.6,2.1s0,.5-.3.7c-.2.2-.4.3-.7.3s-.5,0-.7-.3c-.2-.2-.2-.4-.2-.7,0-1.1.3-2.1.8-3,.6-.9,1.3-1.6,2.3-2.1,1-.5,2.1-.8,3.4-.8s2.3.3,3.2.8c1,.5,1.7,1.3,2.3,2.2.6.9.8,2,.8,3.1s-.2,1.3-.5,2-.8,1.3-1.3,1.9-1.2,1-1.9,1.3c1.1.3,1.9.7,2.6,1.4.7.7,1.2,1.4,1.6,2.3.4.9.5,1.8.5,2.7,0,1.3-.3,2.6-1,3.6-.6,1.1-1.5,1.9-2.6,2.5-1.1.6-2.4.9-3.8.9Z"/>
    <path class="cls-2" d="M30.9,96.3c-.3,0-.5,0-.7-.3-.2-.2-.3-.4-.3-.7v-22.4c0-.3,0-.5.3-.7.2-.2.4-.2.7-.2h5.6c1.8,0,3.4.3,4.9.9,1.5.6,2.8,1.4,3.8,2.5,1.1,1.1,1.9,2.4,2.5,3.8.6,1.5.9,3.1.9,4.9s-.3,3.4-.9,4.9c-.6,1.5-1.4,2.8-2.5,3.8-1.1,1.1-2.4,1.9-3.8,2.5-1.5.6-3.1.9-4.9.9h-5.6ZM31.9,94.6h4.6c2,0,3.8-.5,5.3-1.4,1.5-.9,2.7-2.1,3.6-3.7.9-1.6,1.3-3.4,1.3-5.4s-.4-3.8-1.3-5.3c-.9-1.6-2.1-2.8-3.6-3.7-1.5-.9-3.3-1.4-5.3-1.4h-4.6v20.9Z"/>
    <path class="cls-2" d="M61.7,88.8c-.3,0-.5,0-.7-.3-.2-.2-.3-.4-.3-.7s0-.5.3-.7c.2-.2.4-.3.7-.3h7.5c.3,0,.5,0,.7.3s.3.4.3.7,0,.5-.3.7c-.2.2-.4.3-.7.3h-7.5Z"/>
    <path class="cls-2" d="M81.3,96.3c-.4,0-.7-.2-.8-.5s-.2-.6,0-.9l9.4-22.2c.2-.4.5-.7.9-.7s.7.2.9.7l9.4,22.2c.2.3.2.6,0,.9-.2.3-.5.4-.8.4s-.4,0-.5-.1c-.1,0-.3-.2-.4-.4l-9.1-21.7h1l-9.1,21.7c0,.2-.2.4-.3.4-.1,0-.3.1-.5.1ZM83.6,90.2l.7-1.7h12.9l.7,1.7h-14.4Z"/>
    <path class="cls-2" d="M114.7,96.3c-.3,0-.5,0-.7-.3-.2-.2-.3-.4-.3-.7v-22.4c0-.3,0-.5.3-.7.2-.2.4-.2.7-.2h5.9c1.5,0,2.8.3,4,.9,1.2.6,2.1,1.5,2.7,2.6.7,1.1,1,2.4,1,3.8s-.3,2.7-1,3.8c-.7,1.1-1.6,2-2.7,2.6-1.2.6-2.5.9-4,.9h-5v8.7c0,.3,0,.5-.2.7-.2.2-.4.3-.7.3ZM115.6,84.8h5c1.2,0,2.2-.2,3.1-.7s1.6-1.1,2.1-1.9c.5-.8.8-1.7.8-2.8s-.3-2-.8-2.9c-.5-.8-1.2-1.5-2.1-1.9-.9-.5-1.9-.7-3.1-.7h-5v10.9ZM127.7,96.3c-.2,0-.4,0-.5-.1-.1,0-.2-.2-.3-.4l-6.2-9.9,1.9-.4,5.9,9.4c.3.4.3.8.2,1-.2.3-.5.4-.9.4Z"/>
    <path class="cls-2" d="M139.8,73.8c-.2,0-.4,0-.6-.2-.2-.2-.2-.4-.2-.6s0-.5.2-.6c.2-.2.4-.2.6-.2h17.5c.2,0,.4,0,.6.2.2.2.2.4.2.6s0,.4-.2.6c-.2.2-.4.2-.6.2h-17.5ZM148.6,96.3c-.3,0-.5,0-.7-.3-.2-.2-.3-.4-.3-.7v-23.3h1.9v23.3c0,.3,0,.5-.3.7-.2.2-.4.3-.7.3Z"/>
    <path class="cls-2" d="M165.8,88.8c-.3,0-.5,0-.7-.3-.2-.2-.3-.4-.3-.7s0-.5.3-.7c.2-.2.4-.3.7-.3h7.5c.3,0,.5,0,.7.3s.3.4.3.7,0,.5-.3.7c-.2.2-.4.3-.7.3h-7.5Z"/>
    <path class="cls-2" d="M188.9,96.3c-.3,0-.5,0-.7-.3-.2-.2-.3-.4-.3-.7v-22.4c0-.3,0-.5.3-.7.2-.2.4-.2.7-.2h5.6c1.8,0,3.4.3,4.9.9,1.5.6,2.8,1.4,3.8,2.5,1.1,1.1,1.9,2.4,2.5,3.8s.9,3.1.9,4.9-.3,3.4-.9,4.9c-.6,1.5-1.4,2.8-2.5,3.8-1.1,1.1-2.4,1.9-3.8,2.5-1.5.6-3.1.9-4.9.9h-5.6ZM189.8,94.6h4.6c2,0,3.8-.5,5.3-1.4,1.5-.9,2.7-2.1,3.6-3.7.9-1.6,1.3-3.4,1.3-5.4s-.4-3.8-1.3-5.3c-.9-1.6-2.1-2.8-3.6-3.7-1.5-.9-3.3-1.4-5.3-1.4h-4.6v20.9Z"/>
    <path class="cls-2" d="M221.5,96.3c-.3,0-.5,0-.7-.3-.2-.2-.3-.4-.3-.7v-22.4c0-.3,0-.5.3-.7s.4-.3.7-.3h14.9c.2,0,.5,0,.7.3.2.2.3.4.3.7s0,.5-.3.7-.4.3-.7.3h-14v9.3h10.3c.3,0,.5,0,.7.3.2.2.3.4.3.7s0,.5-.3.7c-.2.2-.4.3-.7.3h-10.3v9.3h14c.2,0,.5,0,.7.3.2.2.3.4.3.7s0,.5-.3.7c-.2.2-.4.3-.7.3h-14.9Z"/>
    <path class="cls-2" d="M258.2,96.6c-1.3,0-2.5-.2-3.6-.5s-2-.9-2.8-1.5c-.8-.7-1.4-1.5-1.9-2.4-.1-.2-.1-.5,0-.7s.3-.4.6-.5c.2,0,.5,0,.7,0s.4.3.5.5c.4.7.9,1.2,1.5,1.7.6.5,1.3.9,2.2,1.1.8.3,1.8.4,2.8.4s2.2-.2,3.1-.6,1.5-1,2-1.7c.5-.8.7-1.7.7-2.8s-.5-2.5-1.5-3.5c-1-.9-2.5-1.5-4.5-1.8-2.3-.3-4.1-1.1-5.4-2.2s-2-2.6-2-4.3.3-2.3.9-3.2c.6-.9,1.5-1.6,2.6-2.1,1.1-.5,2.4-.8,3.8-.8s2.1.2,3,.5c.9.4,1.7.8,2.4,1.4.7.6,1.2,1.2,1.6,1.8.1.2.2.5.1.7,0,.3-.2.4-.5.5-.2,0-.5,0-.7,0s-.4-.2-.6-.4c-.3-.4-.7-.9-1.1-1.3-.5-.4-1-.8-1.7-1-.7-.3-1.5-.4-2.5-.4-1.7,0-3,.4-4,1.1-1,.8-1.5,1.8-1.5,3.3s.2,1.4.6,2c.4.6,1,1.1,1.9,1.6.9.4,2,.8,3.3,1,2.7.5,4.6,1.3,5.8,2.5s1.8,2.7,1.8,4.5-.2,2-.5,2.9c-.4.9-.9,1.6-1.5,2.2s-1.5,1.1-2.4,1.4-2,.5-3.1.5Z"/>
    <path class="cls-2" d="M280.9,96.3c-.3,0-.5,0-.7-.3-.2-.2-.3-.4-.3-.7v-22.4c0-.3,0-.5.3-.7s.4-.3.7-.3.5,0,.7.3.3.4.3.7v22.4c0,.3,0,.5-.3.7-.2.2-.4.3-.7.3Z"/>
    <path class="cls-2" d="M307.9,96.6c-1.7,0-3.2-.3-4.7-1s-2.7-1.5-3.9-2.7c-1.1-1.1-2-2.5-2.6-4-.6-1.5-1-3.1-1-4.8s.3-3.3.9-4.8,1.5-2.8,2.6-4c1.1-1.1,2.4-2,3.9-2.7,1.5-.7,3-1,4.7-1s2.8.2,4.1.7c1.3.5,2.5,1.1,3.6,2.1.2.1.3.3.3.6s0,.5-.2.7c-.2.2-.4.3-.7.3s-.2,0-.2,0c0,0-.2,0-.2-.1,0,0-.2-.1-.3-.2-.8-.7-1.8-1.3-2.8-1.6-1.1-.3-2.2-.5-3.4-.5s-2.7.3-3.9.9c-1.2.6-2.3,1.3-3.3,2.3-1,1-1.7,2.1-2.2,3.4-.5,1.3-.8,2.6-.8,4s.3,2.8.8,4.1c.5,1.3,1.3,2.4,2.2,3.4s2,1.7,3.3,2.3c1.2.5,2.6.8,4,.8s2.4-.2,3.4-.6,2.1-.9,3-1.7c.2-.1.4-.2.6-.2.2,0,.4.1.6.3.2.2.2.4.2.7s0,.2,0,.3c0,.1,0,.2-.2.3-1,1-2.2,1.7-3.5,2.1-1.3.4-2.7.6-4.1.6ZM315.8,93.3l-1.9-.4v-6.7h-5.2c-.3,0-.5,0-.7-.2-.2-.2-.3-.4-.3-.6s0-.4.3-.6c.2-.2.4-.2.7-.2h6.1c.3,0,.5,0,.7.2.2.2.2.4.2.7v7.9Z"/>
    <path class="cls-2" d="M330.8,96.3c-.3,0-.5,0-.7-.3-.2-.2-.3-.4-.3-.7v-22.4c0-.3,0-.5.3-.7s.4-.3.7-.3.5.1.7.3l15.7,20.5v-19.9c0-.3,0-.5.3-.7.2-.2.4-.3.7-.3s.5,0,.7.3c.2.2.3.4.3.7v22.4c0,.3,0,.5-.3.7-.2.2-.4.3-.7.3s-.3,0-.4,0-.2-.1-.3-.2l-15.8-20.5v19.9c0,.3,0,.5-.3.7-.2.2-.4.3-.7.3Z"/>
    <path class="cls-2" d="M365.3,96.3c-.3,0-.5,0-.7-.3-.2-.2-.3-.4-.3-.7v-22.4c0-.3,0-.5.3-.7s.4-.3.7-.3h14.9c.2,0,.5,0,.7.3.2.2.3.4.3.7s0,.5-.3.7-.4.3-.7.3h-14v9.3h10.3c.3,0,.5,0,.7.3.2.2.3.4.3.7s0,.5-.3.7c-.2.2-.4.3-.7.3h-10.3v9.3h14c.2,0,.5,0,.7.3.2.2.3.4.3.7s0,.5-.3.7c-.2.2-.4.3-.7.3h-14.9Z"/>
    <path class="cls-2" d="M395.6,96.3c-.3,0-.5,0-.7-.3-.2-.2-.3-.4-.3-.7v-22.4c0-.3,0-.5.3-.7.2-.2.4-.2.7-.2h5.9c1.5,0,2.8.3,4,.9,1.2.6,2.1,1.5,2.7,2.6.7,1.1,1,2.4,1,3.8s-.3,2.7-1,3.8c-.7,1.1-1.6,2-2.7,2.6-1.2.6-2.5.9-4,.9h-5v8.7c0,.3,0,.5-.2.7-.2.2-.4.3-.7.3ZM396.5,84.8h5c1.2,0,2.2-.2,3.1-.7.9-.5,1.6-1.1,2.1-1.9.5-.8.8-1.7.8-2.8s-.3-2-.8-2.9c-.5-.8-1.2-1.5-2.1-1.9-.9-.5-1.9-.7-3.1-.7h-5v10.9ZM408.6,96.3c-.2,0-.4,0-.5-.1-.1,0-.2-.2-.3-.4l-6.2-9.9,1.9-.4,5.9,9.4c.3.4.3.8.2,1-.2.3-.5.4-.9.4Z"/>
  </g>
</svg>