<?xml version="1.0" encoding="UTF-8"?>
<svg id="Layer_1" data-name="Layer 1" xmlns="http://www.w3.org/2000/svg" version="1.1" viewBox="0 0 30 30">
  <defs>
    <style>
      .cls-1 {
        fill: #574fa1;
      }

      .cls-1, .cls-2 {
        stroke-width: 0px;
      }

      .cls-2 {
        fill: #fff;
      }

      .cls-3 {
        display: none;
      }
    </style>
  </defs>
  <path class="cls-1" d="M.4,22v-13.9C.4,3.8,3.8.4,8,.4h13.9c4.2,0,7.6,3.4,7.6,7.6v13.9c0,4.2-3.4,7.6-7.6,7.6h-13.9c-4.2,0-7.6-3.4-7.6-7.6Z"/>
  <g class="cls-3">
    <path class="cls-2" d="M20.7,19.7l.6-4.2h-4.1v-2.7c0-1.2.6-2.3,2.4-2.3h1.8v-3.6s-1.7-.3-3.3-.3c-3.3,0-5.5,2-5.5,5.7v3.2h-3.7v4.2h3.7v9.9h4.6v-9.9h3.4Z"/>
  </g>
  <g>
    <path class="cls-2" d="M19.5,9.5c-.6,0-1,.4-1,1s.5,1,1,1,1-.4,1-1-.5-1-1-1Z"/>
    <path class="cls-2" d="M15.1,10.8c-2.3,0-4.2,1.9-4.2,4.2s1.9,4.2,4.2,4.2,4.2-1.9,4.2-4.2c0-2.3-1.9-4.2-4.2-4.2ZM15.1,17.7c-1.5,0-2.7-1.2-2.7-2.7s1.2-2.7,2.7-2.7,2.7,1.2,2.7,2.7c0,1.5-1.2,2.7-2.7,2.7Z"/>
    <path class="cls-2" d="M18.4,23.6h-6.8c-2.8,0-5.1-2.3-5.1-5.1v-6.8c0-2.8,2.3-5.1,5.1-5.1h6.8c2.8,0,5.1,2.3,5.1,5.1v6.8c0,2.8-2.3,5.1-5.1,5.1ZM11.6,8c-2,0-3.5,1.6-3.5,3.5v6.8c0,1.9,1.6,3.5,3.5,3.5h6.8c2,0,3.5-1.6,3.5-3.5v-6.8c0-1.9-1.6-3.5-3.5-3.5h-6.8Z"/>
  </g>
</svg>