<?xml version="1.0" encoding="UTF-8"?>
<svg id="Layer_1" data-name="Layer 1" xmlns="http://www.w3.org/2000/svg" version="1.1" viewBox="0 0 200 50">
  <defs>
    <style>
      .cls-1 {
        isolation: isolate;
      }

      .cls-2 {
        fill: #fff;
      }

      .cls-2, .cls-3 {
        stroke-width: 0px;
      }

      .cls-3 {
        fill: #542cdb;
      }
    </style>
  </defs>
  <g>
    <polygon class="cls-3" points="43.1 14.1 43.1 32.9 37.4 38 29.4 45 22.3 38.7 22.3 30.9 29.4 37.3 37.4 30.1 37.4 22.2 43.1 14.1"/>
    <polygon class="cls-3" points="43.1 5 43.1 12.7 37.4 17.8 35 19.9 29.4 25 21.5 17.8 21.5 38 15.8 32.9 15.8 5 21.5 10.1 29.4 17.3 37.4 10.1 43.1 5"/>
  </g>
  <g class="cls-1">
    <path class="cls-2" d="M73.6,13.7v21.8h-4.3v-9.3l-6.1,8.9h0l-6.1-8.9v9.3h-4.3V13.7h.2l10.2,14,10.2-14s.2,0,.2,0Z"/>
    <path class="cls-2" d="M76.3,24.9c0-6.1,5-11.1,11-11.1s11.1,5,11.1,11.1-5,11-11.1,11-11-5-11-11ZM94.1,24.9c0-3.7-3-6.8-6.8-6.8s-6.7,3-6.7,6.8,3,6.7,6.7,6.7,6.8-3,6.8-6.7Z"/>
    <path class="cls-2" d="M117.4,14.2v21.3h-4.3v-8.5h-7.6v8.5h-4.3V14.2h4.3v8.5h7.6v-8.5s4.3,0,4.3,0Z"/>
    <path class="cls-2" d="M119.8,34.5l2.2-3.7c.7.6,1.5.9,2.6.9h0c2.3,0,4.2-2,4.2-4.3v-13.2h4.2v13.2c0,4.8-3.7,8.5-8.4,8.5h0c-1.8,0-3.4-.5-4.8-1.5h.1Z"/>
    <path class="cls-2" d="M140.9,18.5v4.2h7.3v4.3h-7.3v4.4h8.5v4.2h-12.8V14.2h12.8v4.2h-8.5Z"/>
    <path class="cls-2" d="M168.8,14.2v21.3h-4.3v-8.5h-7.6v8.5h-4.3V14.2h4.3v8.5h7.6v-8.5s4.3,0,4.3,0Z"/>
    <path class="cls-2" d="M185.4,32.5h-8.5l-1.4,3h-4.6l10.2-21.8h.1l10.2,21.8h-4.6l-1.3-3h0ZM183.7,28.9l-2.6-5.7-2.6,5.7h5.2Z"/>
  </g>
</svg>